<mxfile host="app.diagrams.net" agent="Mozilla/5.0 (Windows NT 10.0; Win64; x64) AppleWebKit/537.36 (KHTML, like Gecko) Chrome/134.0.0.0 Safari/537.36" version="26.1.1">
  <diagram name="Page-1" id="e7e014a7-5840-1c2e-5031-d8a46d1fe8dd">
    <mxGraphModel dx="1313" dy="696" grid="1" gridSize="10" guides="1" tooltips="1" connect="1" arrows="1" fold="1" page="1" pageScale="1" pageWidth="1169" pageHeight="826" background="none" math="0" shadow="0">
      <root>
        <mxCell id="0" />
        <mxCell id="1" parent="0" />
        <mxCell id="2" value="Militares" style="swimlane;whiteSpace=wrap" parent="1" vertex="1">
          <mxGeometry x="22.5" y="20" width="280" height="760" as="geometry" />
        </mxCell>
        <mxCell id="5" value="" style="ellipse;shape=startState;fillColor=#000000;strokeColor=#ff0000;" parent="2" vertex="1">
          <mxGeometry x="100" y="40" width="30" height="30" as="geometry" />
        </mxCell>
        <mxCell id="6" value="" style="edgeStyle=elbowEdgeStyle;elbow=horizontal;verticalAlign=bottom;endArrow=open;endSize=8;strokeColor=#FF0000;endFill=1;rounded=0" parent="2" source="5" target="7" edge="1">
          <mxGeometry x="100" y="40" as="geometry">
            <mxPoint x="115" y="110" as="targetPoint" />
          </mxGeometry>
        </mxCell>
        <mxCell id="7" value="Planeja Missão" style="" parent="2" vertex="1">
          <mxGeometry x="60" y="110" width="110" height="50" as="geometry" />
        </mxCell>
        <mxCell id="8" value="Entra dados no&#xa; sistema" style="" parent="2" vertex="1">
          <mxGeometry x="60" y="220" width="110" height="50" as="geometry" />
        </mxCell>
        <mxCell id="9" value="" style="endArrow=open;strokeColor=#FF0000;endFill=1;rounded=0" parent="2" source="7" target="8" edge="1">
          <mxGeometry relative="1" as="geometry" />
        </mxCell>
        <mxCell id="PjME-7z2257I_1hEbsFk-53" style="edgeStyle=orthogonalEdgeStyle;rounded=0;orthogonalLoop=1;jettySize=auto;html=1;exitX=1;exitY=0.75;exitDx=0;exitDy=0;entryX=0.5;entryY=0;entryDx=0;entryDy=0;" parent="2" source="34" target="PjME-7z2257I_1hEbsFk-52" edge="1">
          <mxGeometry relative="1" as="geometry" />
        </mxCell>
        <mxCell id="34" value="" style="whiteSpace=wrap;strokeColor=#FF0000;fillColor=#FF0000;rotation=90;" parent="2" vertex="1">
          <mxGeometry x="112.5" y="270" width="5" height="45" as="geometry" />
        </mxCell>
        <mxCell id="11" value="" style="endArrow=open;strokeColor=#FF0000;endFill=1;rounded=0;entryX=0;entryY=0.5;entryDx=0;entryDy=0;" parent="2" source="8" target="34" edge="1">
          <mxGeometry relative="1" as="geometry">
            <mxPoint x="178.5" y="325" as="targetPoint" />
          </mxGeometry>
        </mxCell>
        <mxCell id="PlUduE5lpi1tI5h6oBpH-53" style="edgeStyle=orthogonalEdgeStyle;rounded=0;orthogonalLoop=1;jettySize=auto;html=1;exitX=0.5;exitY=1;exitDx=0;exitDy=0;entryX=0;entryY=0.75;entryDx=0;entryDy=0;" edge="1" parent="2" source="PjME-7z2257I_1hEbsFk-52" target="PlUduE5lpi1tI5h6oBpH-52">
          <mxGeometry relative="1" as="geometry" />
        </mxCell>
        <mxCell id="PjME-7z2257I_1hEbsFk-52" value="&lt;font style=&quot;font-size: 11px;&quot;&gt;Operação autonoma ou Remota?&lt;/font&gt;" style="rhombus;whiteSpace=wrap;html=1;fontColor=#000000;fillColor=#ffffc0;strokeColor=#ff0000;" parent="2" vertex="1">
          <mxGeometry x="49.5" y="342" width="110" height="60" as="geometry" />
        </mxCell>
        <mxCell id="PlUduE5lpi1tI5h6oBpH-48" style="edgeStyle=orthogonalEdgeStyle;rounded=0;orthogonalLoop=1;jettySize=auto;html=1;exitX=0.5;exitY=1;exitDx=0;exitDy=0;entryX=0;entryY=0.5;entryDx=0;entryDy=0;" edge="1" parent="2" source="PjME-7z2257I_1hEbsFk-57" target="PlUduE5lpi1tI5h6oBpH-47">
          <mxGeometry relative="1" as="geometry" />
        </mxCell>
        <mxCell id="PjME-7z2257I_1hEbsFk-57" value="Envia instruções&#xa;ao sistema" style="" parent="2" vertex="1">
          <mxGeometry x="55" y="480" width="110" height="50" as="geometry" />
        </mxCell>
        <UserObject label="Remota" placeholders="1" name="Variable" id="PjME-7z2257I_1hEbsFk-65">
          <mxCell style="text;html=1;strokeColor=none;fillColor=none;align=center;verticalAlign=middle;whiteSpace=wrap;overflow=hidden;" parent="2" vertex="1">
            <mxGeometry x="89" y="398" width="80" height="20" as="geometry" />
          </mxCell>
        </UserObject>
        <UserObject label="Autônoma" placeholders="1" name="Variable" id="PjME-7z2257I_1hEbsFk-66">
          <mxCell style="text;html=1;strokeColor=none;fillColor=none;align=center;verticalAlign=middle;whiteSpace=wrap;overflow=hidden;" parent="2" vertex="1">
            <mxGeometry x="159.5" y="350" width="80" height="20" as="geometry" />
          </mxCell>
        </UserObject>
        <mxCell id="PlUduE5lpi1tI5h6oBpH-43" style="edgeStyle=orthogonalEdgeStyle;rounded=0;orthogonalLoop=1;jettySize=auto;html=1;exitX=0.5;exitY=1;exitDx=0;exitDy=0;" edge="1" parent="2" source="PlUduE5lpi1tI5h6oBpH-41" target="PlUduE5lpi1tI5h6oBpH-42">
          <mxGeometry relative="1" as="geometry" />
        </mxCell>
        <mxCell id="PlUduE5lpi1tI5h6oBpH-41" value="Encerra missão" style="" vertex="1" parent="2">
          <mxGeometry x="32.5" y="653" width="110" height="50" as="geometry" />
        </mxCell>
        <mxCell id="PlUduE5lpi1tI5h6oBpH-42" value="" style="ellipse;shape=endState;fillColor=#000000;strokeColor=#ff0000" vertex="1" parent="2">
          <mxGeometry x="72.5" y="719" width="30" height="30" as="geometry" />
        </mxCell>
        <mxCell id="PlUduE5lpi1tI5h6oBpH-50" style="edgeStyle=orthogonalEdgeStyle;rounded=0;orthogonalLoop=1;jettySize=auto;html=1;exitX=1;exitY=0.75;exitDx=0;exitDy=0;entryX=0.5;entryY=0;entryDx=0;entryDy=0;" edge="1" parent="2" source="PlUduE5lpi1tI5h6oBpH-47" target="PlUduE5lpi1tI5h6oBpH-41">
          <mxGeometry relative="1" as="geometry" />
        </mxCell>
        <mxCell id="PlUduE5lpi1tI5h6oBpH-47" value="" style="whiteSpace=wrap;strokeColor=#FF0000;fillColor=#FF0000;rotation=90;" vertex="1" parent="2">
          <mxGeometry x="102.5" y="580" width="5" height="45" as="geometry" />
        </mxCell>
        <mxCell id="PlUduE5lpi1tI5h6oBpH-54" style="edgeStyle=orthogonalEdgeStyle;rounded=0;orthogonalLoop=1;jettySize=auto;html=1;exitX=1;exitY=0.5;exitDx=0;exitDy=0;entryX=0.5;entryY=0;entryDx=0;entryDy=0;" edge="1" parent="2" source="PlUduE5lpi1tI5h6oBpH-52" target="PjME-7z2257I_1hEbsFk-57">
          <mxGeometry relative="1" as="geometry" />
        </mxCell>
        <mxCell id="PlUduE5lpi1tI5h6oBpH-52" value="" style="whiteSpace=wrap;strokeColor=#FF0000;fillColor=#FF0000;rotation=90;" vertex="1" parent="2">
          <mxGeometry x="107.5" y="422" width="5" height="45" as="geometry" />
        </mxCell>
        <mxCell id="3" value="Sistema" style="swimlane;whiteSpace=wrap" parent="1" vertex="1">
          <mxGeometry x="303" y="20" width="280" height="760" as="geometry" />
        </mxCell>
        <mxCell id="10" value="Armazena logs&#xa;no Banco de Dados" style="" parent="3" vertex="1">
          <mxGeometry x="85" y="292" width="110" height="50" as="geometry" />
        </mxCell>
        <mxCell id="PjME-7z2257I_1hEbsFk-59" value="Recebe/Envia &#xa;instruções&#xa;ao drone" style="" parent="3" vertex="1">
          <mxGeometry x="85" y="550" width="110" height="50" as="geometry" />
        </mxCell>
        <mxCell id="PjME-7z2257I_1hEbsFk-85" value="Envia prompt da&#xa;missão para o &#xa;drone" style="" parent="3" vertex="1">
          <mxGeometry x="85" y="393" width="110" height="50" as="geometry" />
        </mxCell>
        <mxCell id="4" value="Drone" style="swimlane;whiteSpace=wrap" parent="1" vertex="1">
          <mxGeometry x="582.5" y="20" width="537.5" height="760" as="geometry" />
        </mxCell>
        <mxCell id="38" value="" style="ellipse;shape=endState;fillColor=#000000;strokeColor=#ff0000" parent="4" vertex="1">
          <mxGeometry x="305.5" y="592" width="30" height="30" as="geometry" />
        </mxCell>
        <mxCell id="39" value="" style="endArrow=open;strokeColor=#FF0000;endFill=1;rounded=0;exitX=0.5;exitY=1;exitDx=0;exitDy=0;" parent="4" source="PjME-7z2257I_1hEbsFk-50" target="38" edge="1">
          <mxGeometry relative="1" as="geometry">
            <mxPoint x="341" y="512" as="sourcePoint" />
          </mxGeometry>
        </mxCell>
        <mxCell id="PjME-7z2257I_1hEbsFk-49" style="edgeStyle=orthogonalEdgeStyle;rounded=0;orthogonalLoop=1;jettySize=auto;html=1;exitX=0.5;exitY=1;exitDx=0;exitDy=0;entryX=0.5;entryY=0;entryDx=0;entryDy=0;" parent="4" source="PjME-7z2257I_1hEbsFk-45" target="PjME-7z2257I_1hEbsFk-46" edge="1">
          <mxGeometry relative="1" as="geometry" />
        </mxCell>
        <mxCell id="PjME-7z2257I_1hEbsFk-45" value="Executa tarefa &#xa;designada" style="" parent="4" vertex="1">
          <mxGeometry x="270.5" y="285" width="110" height="50" as="geometry" />
        </mxCell>
        <mxCell id="PjME-7z2257I_1hEbsFk-82" style="edgeStyle=orthogonalEdgeStyle;rounded=0;orthogonalLoop=1;jettySize=auto;html=1;exitX=1;exitY=0.5;exitDx=0;exitDy=0;" parent="4" source="PjME-7z2257I_1hEbsFk-46" target="PjME-7z2257I_1hEbsFk-80" edge="1">
          <mxGeometry relative="1" as="geometry" />
        </mxCell>
        <mxCell id="PjME-7z2257I_1hEbsFk-46" value="missão&lt;br&gt;&lt;div&gt;completa?&lt;/div&gt;" style="rhombus;whiteSpace=wrap;html=1;fontColor=#000000;fillColor=#ffffc0;strokeColor=#ff0000;" parent="4" vertex="1">
          <mxGeometry x="275.5" y="372" width="90" height="48" as="geometry" />
        </mxCell>
        <mxCell id="PjME-7z2257I_1hEbsFk-48" value="yes" style="edgeStyle=orthogonalEdgeStyle;html=1;align=left;verticalAlign=top;endArrow=open;endSize=8;strokeColor=#ff0000;rounded=0;" parent="4" source="PjME-7z2257I_1hEbsFk-46" edge="1">
          <mxGeometry x="-1" relative="1" as="geometry">
            <mxPoint x="310.5" y="472" as="targetPoint" />
          </mxGeometry>
        </mxCell>
        <mxCell id="PjME-7z2257I_1hEbsFk-50" value="Retorna para&#xa;base" style="" parent="4" vertex="1">
          <mxGeometry x="265.5" y="472" width="110" height="50" as="geometry" />
        </mxCell>
        <mxCell id="PjME-7z2257I_1hEbsFk-62" style="edgeStyle=orthogonalEdgeStyle;rounded=0;orthogonalLoop=1;jettySize=auto;html=1;exitX=0.5;exitY=1;exitDx=0;exitDy=0;entryX=0.5;entryY=0;entryDx=0;entryDy=0;" parent="4" source="PjME-7z2257I_1hEbsFk-61" target="PjME-7z2257I_1hEbsFk-45" edge="1">
          <mxGeometry relative="1" as="geometry" />
        </mxCell>
        <mxCell id="PjME-7z2257I_1hEbsFk-61" value="IA embutida&#xa;interpreta instruções" style="" parent="4" vertex="1">
          <mxGeometry x="270.5" y="192" width="110" height="50" as="geometry" />
        </mxCell>
        <mxCell id="PjME-7z2257I_1hEbsFk-81" style="edgeStyle=orthogonalEdgeStyle;rounded=0;orthogonalLoop=1;jettySize=auto;html=1;exitX=0.5;exitY=0;exitDx=0;exitDy=0;entryX=1;entryY=0.5;entryDx=0;entryDy=0;" parent="4" source="PjME-7z2257I_1hEbsFk-80" target="PjME-7z2257I_1hEbsFk-61" edge="1">
          <mxGeometry relative="1" as="geometry" />
        </mxCell>
        <mxCell id="PjME-7z2257I_1hEbsFk-80" value="Analisa entradas&#xa;dos sensores" style="" parent="4" vertex="1">
          <mxGeometry x="418.5" y="371" width="110" height="50" as="geometry" />
        </mxCell>
        <UserObject label="não" placeholders="1" name="Variable" id="PjME-7z2257I_1hEbsFk-83">
          <mxCell style="text;html=1;strokeColor=none;fillColor=none;align=center;verticalAlign=middle;whiteSpace=wrap;overflow=hidden;" parent="4" vertex="1">
            <mxGeometry x="330.5" y="378" width="80" height="20" as="geometry" />
          </mxCell>
        </UserObject>
        <mxCell id="PlUduE5lpi1tI5h6oBpH-39" value="Retorna dados&#xa;dos sensores" style="" vertex="1" parent="4">
          <mxGeometry x="87.5" y="430" width="110" height="50" as="geometry" />
        </mxCell>
        <mxCell id="PjME-7z2257I_1hEbsFk-54" style="edgeStyle=orthogonalEdgeStyle;rounded=0;orthogonalLoop=1;jettySize=auto;html=1;exitX=1;exitY=0.25;exitDx=0;exitDy=0;entryX=0;entryY=0.5;entryDx=0;entryDy=0;" parent="1" source="34" target="10" edge="1">
          <mxGeometry relative="1" as="geometry" />
        </mxCell>
        <mxCell id="PjME-7z2257I_1hEbsFk-72" style="edgeStyle=orthogonalEdgeStyle;rounded=0;orthogonalLoop=1;jettySize=auto;html=1;exitX=0.5;exitY=1;exitDx=0;exitDy=0;entryX=0.5;entryY=0;entryDx=0;entryDy=0;" parent="1" source="PjME-7z2257I_1hEbsFk-73" target="PlUduE5lpi1tI5h6oBpH-39" edge="1">
          <mxGeometry relative="1" as="geometry">
            <mxPoint x="719" y="394" as="targetPoint" />
          </mxGeometry>
        </mxCell>
        <mxCell id="PjME-7z2257I_1hEbsFk-73" value="Executa comando&#xa;designado" style="" parent="1" vertex="1">
          <mxGeometry x="669" y="307" width="110" height="50" as="geometry" />
        </mxCell>
        <mxCell id="PjME-7z2257I_1hEbsFk-86" style="edgeStyle=orthogonalEdgeStyle;rounded=0;orthogonalLoop=1;jettySize=auto;html=1;exitX=1;exitY=0.5;exitDx=0;exitDy=0;entryX=0;entryY=0.5;entryDx=0;entryDy=0;" parent="1" source="PjME-7z2257I_1hEbsFk-52" target="PjME-7z2257I_1hEbsFk-85" edge="1">
          <mxGeometry relative="1" as="geometry" />
        </mxCell>
        <mxCell id="PjME-7z2257I_1hEbsFk-87" style="edgeStyle=orthogonalEdgeStyle;rounded=0;orthogonalLoop=1;jettySize=auto;html=1;exitX=1;exitY=0.5;exitDx=0;exitDy=0;entryX=0.5;entryY=0;entryDx=0;entryDy=0;" parent="1" source="PjME-7z2257I_1hEbsFk-85" target="PjME-7z2257I_1hEbsFk-61" edge="1">
          <mxGeometry relative="1" as="geometry">
            <Array as="points">
              <mxPoint x="610" y="438" />
              <mxPoint x="610" y="192" />
              <mxPoint x="908" y="192" />
            </Array>
          </mxGeometry>
        </mxCell>
        <mxCell id="PjME-7z2257I_1hEbsFk-89" style="edgeStyle=orthogonalEdgeStyle;rounded=0;orthogonalLoop=1;jettySize=auto;html=1;exitX=1;exitY=0.5;exitDx=0;exitDy=0;entryX=0;entryY=0.5;entryDx=0;entryDy=0;" parent="1" source="PjME-7z2257I_1hEbsFk-59" target="PjME-7z2257I_1hEbsFk-73" edge="1">
          <mxGeometry relative="1" as="geometry">
            <Array as="points">
              <mxPoint x="498" y="590" />
              <mxPoint x="640" y="590" />
              <mxPoint x="640" y="332" />
            </Array>
          </mxGeometry>
        </mxCell>
        <mxCell id="PlUduE5lpi1tI5h6oBpH-51" style="edgeStyle=orthogonalEdgeStyle;rounded=0;orthogonalLoop=1;jettySize=auto;html=1;exitX=1;exitY=0.25;exitDx=0;exitDy=0;entryX=0;entryY=0.5;entryDx=0;entryDy=0;" edge="1" parent="1" source="PlUduE5lpi1tI5h6oBpH-47" target="PjME-7z2257I_1hEbsFk-59">
          <mxGeometry relative="1" as="geometry" />
        </mxCell>
        <mxCell id="PlUduE5lpi1tI5h6oBpH-56" style="edgeStyle=orthogonalEdgeStyle;rounded=0;orthogonalLoop=1;jettySize=auto;html=1;exitX=0;exitY=0.5;exitDx=0;exitDy=0;entryX=0;entryY=0.25;entryDx=0;entryDy=0;" edge="1" parent="1" source="PlUduE5lpi1tI5h6oBpH-39" target="PlUduE5lpi1tI5h6oBpH-52">
          <mxGeometry relative="1" as="geometry">
            <Array as="points">
              <mxPoint x="190" y="475" />
              <mxPoint x="190" y="450" />
              <mxPoint x="144" y="450" />
            </Array>
          </mxGeometry>
        </mxCell>
      </root>
    </mxGraphModel>
  </diagram>
</mxfile>
